name E:\Dropbox\SEL\BOX\Experiment\240124_SUB1_PJH\c3d\XYZ\UpDown_TrcMot\15_10_trial1_D1_ExtLoadAPP1.mot
datacolumns 37
datarows 5
range 8.617 8.621
endheader

time	    ground_force1_vx	    ground_force1_vy	    ground_force1_vz	    ground_force1_px	    ground_force1_py	    ground_force1_pz	    ground_torque1_x	    ground_torque1_y	    ground_torque1_z	    ground_force2_vx	    ground_force2_vy	    ground_force2_vz	    ground_force2_px	    ground_force2_py	    ground_force2_pz	    ground_torque2_x	    ground_torque2_y	    ground_torque2_z	      hand_force3_vx	      hand_force3_vy	      hand_force3_vz	      hand_force3_px	      hand_force3_py	      hand_force3_pz	      hand_torque3_x	      hand_torque3_y	      hand_torque3_z	      hand_force4_vx	      hand_force4_vy	      hand_force4_vz	      hand_force4_px	      hand_force4_py	      hand_force4_pz	      hand_torque4_x	      hand_torque4_y	      hand_torque4_z	
8.617	         34.29464264	        400.12481435	          8.89619081	          0.22042201	          0.00000000	          0.19829325	          0.00000000	         -2.92439897	          0.00000000	        -39.56672651	        448.19544791	         10.55443852	          0.58240765	          0.00000000	          0.19044587	          0.00000000	          2.17638182	          0.00000000	        -16.45034038	        -59.79206478	         -3.23977018	          0.20730971	          1.01374155	         -0.15014991	         -0.00136511	         -0.30597717	         -0.09893435	         16.49917233	        -57.74502770	         -4.62760595	          0.59871481	          1.01374155	         -0.14933369	          0.00090114	          0.20003509	          0.06464210	
8.618	         34.29897306	        399.86832240	          8.88818881	          0.22041176	          0.00000000	          0.19843019	          0.00000000	         -2.93724754	          0.00000000	        -39.52299918	        447.31693728	         10.56785731	          0.58244598	          0.00000000	          0.19041284	          0.00000000	          2.18512413	          0.00000000	        -16.44254995	        -59.62666877	         -2.98653141	          0.20745834	          1.01373347	         -0.14935345	         -0.00139598	         -0.30781300	         -0.09947193	         16.54788573	        -57.53532029	         -4.39261451	          0.59872872	          1.01373347	         -0.14845953	          0.00092272	          0.20228719	          0.06519443	
8.619	         34.30852861	        399.62731561	          8.88262037	          0.22040153	          0.00000000	          0.19856868	          0.00000000	         -2.94945265	          0.00000000	        -39.47834555	        446.44799434	         10.57732702	          0.58248388	          0.00000000	          0.19038281	          0.00000000	          2.19404723	          0.00000000	        -16.43581129	        -59.46347358	         -2.73282042	          0.20760778	          1.01372280	         -0.14856082	         -0.00142628	         -0.30961799	         -0.09999121	         16.59576449	        -57.33018683	         -4.16057591	          0.59874389	          1.01372280	         -0.14758755	          0.00094402	          0.20459923	          0.06575551	
8.62	         34.32335405	        399.40271079	          8.87977579	          0.22039135	          0.00000000	          0.19870869	          0.00000000	         -2.96102441	          0.00000000	        -39.43293013	        445.58962473	         10.58303704	          0.58252133	          0.00000000	          0.19035578	          0.00000000	          2.20314202	          0.00000000	        -16.43014646	        -59.30254140	         -2.47872168	          0.20775801	          1.01370955	         -0.14777205	         -0.00145595	         -0.31139666	         -0.10049298	         16.64277475	        -57.12979023	         -3.93155179	          0.59876027	          1.01370955	         -0.14671784	          0.00096502	          0.20697191	          0.06632546	
8.621	         34.34347533	        399.19535395	          8.87993375	          0.22038123	          0.00000000	          0.19885019	          0.00000000	         -2.97197427	          0.00000000	        -39.38691474	        444.74278227	         10.58518526	          0.58255830	          0.00000000	          0.19033175	          0.00000000	          2.21239894	          0.00000000	        -16.42557601	        -59.14393456	         -2.22432550	          0.20790898	          1.01369369	         -0.14698717	         -0.00148496	         -0.31315387	         -0.10097807	         16.68888703	        -56.93428199	         -3.70560055	          0.59877782	          1.01369369	         -0.14585047	          0.00098569	          0.20940590	          0.06690439	
